<mxfile host="app.diagrams.net" modified="2021-01-03T10:50:47.950Z" agent="5.0 (Windows)" etag="cFUMZcipHudSV3T13mlq" version="14.1.8" type="github">
  <diagram id="C5RBs43oDa-KdzZeNtuy" name="Page-1">
    <mxGraphModel dx="586" dy="879" grid="1" gridSize="10" guides="1" tooltips="1" connect="1" arrows="1" fold="1" page="1" pageScale="1" pageWidth="827" pageHeight="1169" math="0" shadow="0">
      <root>
        <mxCell id="WIyWlLk6GJQsqaUBKTNV-0" />
        <mxCell id="WIyWlLk6GJQsqaUBKTNV-1" parent="WIyWlLk6GJQsqaUBKTNV-0" />
        <mxCell id="F_8K6QHJmM84Rk0KRCar-3" value="" style="edgeStyle=orthogonalEdgeStyle;rounded=0;orthogonalLoop=1;jettySize=auto;html=1;" edge="1" parent="WIyWlLk6GJQsqaUBKTNV-1" source="F_8K6QHJmM84Rk0KRCar-1" target="F_8K6QHJmM84Rk0KRCar-2">
          <mxGeometry relative="1" as="geometry" />
        </mxCell>
        <mxCell id="F_8K6QHJmM84Rk0KRCar-1" value="&lt;div&gt;&lt;b&gt;绪论&lt;/b&gt;&lt;/div&gt;&lt;div&gt;提出问题，阐述研究背景、意义、方法、内容&lt;br&gt;&lt;/div&gt;" style="rounded=0;whiteSpace=wrap;html=1;" vertex="1" parent="WIyWlLk6GJQsqaUBKTNV-1">
          <mxGeometry x="250" y="160" width="140" height="80" as="geometry" />
        </mxCell>
        <mxCell id="F_8K6QHJmM84Rk0KRCar-2" value="&lt;div&gt;文献综述和理论基础&lt;/div&gt;" style="whiteSpace=wrap;html=1;rounded=0;fontStyle=1" vertex="1" parent="WIyWlLk6GJQsqaUBKTNV-1">
          <mxGeometry x="210" y="280" width="220" height="96" as="geometry" />
        </mxCell>
        <mxCell id="F_8K6QHJmM84Rk0KRCar-18" style="edgeStyle=orthogonalEdgeStyle;rounded=0;orthogonalLoop=1;jettySize=auto;html=1;exitX=1;exitY=0.5;exitDx=0;exitDy=0;fontSize=15;" edge="1" parent="WIyWlLk6GJQsqaUBKTNV-1" source="F_8K6QHJmM84Rk0KRCar-4" target="F_8K6QHJmM84Rk0KRCar-17">
          <mxGeometry relative="1" as="geometry">
            <Array as="points">
              <mxPoint x="320" y="390" />
              <mxPoint x="320" y="390" />
            </Array>
          </mxGeometry>
        </mxCell>
        <mxCell id="F_8K6QHJmM84Rk0KRCar-4" value="国外研究综述" style="rounded=0;whiteSpace=wrap;html=1;" vertex="1" parent="WIyWlLk6GJQsqaUBKTNV-1">
          <mxGeometry x="210" y="340" width="110" height="60" as="geometry" />
        </mxCell>
        <mxCell id="F_8K6QHJmM84Rk0KRCar-5" value="国内研究综述" style="rounded=0;whiteSpace=wrap;html=1;" vertex="1" parent="WIyWlLk6GJQsqaUBKTNV-1">
          <mxGeometry x="320" y="340" width="110" height="60" as="geometry" />
        </mxCell>
        <mxCell id="F_8K6QHJmM84Rk0KRCar-15" value="" style="group" vertex="1" connectable="0" parent="WIyWlLk6GJQsqaUBKTNV-1">
          <mxGeometry x="140" y="560" width="360" height="170" as="geometry" />
        </mxCell>
        <mxCell id="F_8K6QHJmM84Rk0KRCar-6" value="运用哈佛分析框架分析北斗星通的财务报表" style="rounded=0;whiteSpace=wrap;html=1;fontStyle=1;fontSize=15;spacingTop=-80;container=1;" vertex="1" parent="F_8K6QHJmM84Rk0KRCar-15">
          <mxGeometry x="6.8936170212765955" width="360.00000000000006" height="170" as="geometry" />
        </mxCell>
        <mxCell id="F_8K6QHJmM84Rk0KRCar-7" value="战略分析" style="rounded=0;whiteSpace=wrap;html=1;fontSize=15;" vertex="1" parent="F_8K6QHJmM84Rk0KRCar-15">
          <mxGeometry x="6.8936170212765955" y="99.16666666666664" width="90.00000000000001" height="70.83333333333333" as="geometry" />
        </mxCell>
        <mxCell id="F_8K6QHJmM84Rk0KRCar-8" value="会计分析" style="rounded=0;whiteSpace=wrap;html=1;fontSize=15;" vertex="1" parent="F_8K6QHJmM84Rk0KRCar-15">
          <mxGeometry x="96.89361702127658" y="99.16666666666664" width="83.57142857142856" height="70.83333333333333" as="geometry" />
        </mxCell>
        <mxCell id="F_8K6QHJmM84Rk0KRCar-9" value="" style="rounded=0;whiteSpace=wrap;html=1;fontSize=15;" vertex="1" parent="F_8K6QHJmM84Rk0KRCar-15">
          <mxGeometry x="180.46504559270514" y="99.16666666666664" width="90.00000000000001" height="70.83333333333333" as="geometry" />
        </mxCell>
        <mxCell id="F_8K6QHJmM84Rk0KRCar-10" value="前景分析" style="rounded=0;whiteSpace=wrap;html=1;fontSize=15;" vertex="1" parent="F_8K6QHJmM84Rk0KRCar-15">
          <mxGeometry x="270.4650455927051" y="99.16666666666664" width="96.42857142857142" height="70.83333333333333" as="geometry" />
        </mxCell>
        <mxCell id="F_8K6QHJmM84Rk0KRCar-11" value="" style="rounded=0;whiteSpace=wrap;html=1;fontSize=15;" vertex="1" parent="F_8K6QHJmM84Rk0KRCar-15">
          <mxGeometry x="180.46504559270514" y="99.16666666666664" width="90.00000000000001" height="70.83333333333333" as="geometry" />
        </mxCell>
        <mxCell id="F_8K6QHJmM84Rk0KRCar-12" value="" style="rounded=0;whiteSpace=wrap;html=1;fontSize=15;" vertex="1" parent="F_8K6QHJmM84Rk0KRCar-15">
          <mxGeometry x="180.46504559270514" y="99.16666666666664" width="90.00000000000001" height="70.83333333333333" as="geometry" />
        </mxCell>
        <mxCell id="F_8K6QHJmM84Rk0KRCar-13" value="财务分析" style="rounded=0;whiteSpace=wrap;html=1;fontSize=15;" vertex="1" parent="F_8K6QHJmM84Rk0KRCar-15">
          <mxGeometry x="180.46504559270514" y="99.16666666666664" width="90.00000000000001" height="70.83333333333333" as="geometry" />
        </mxCell>
        <mxCell id="F_8K6QHJmM84Rk0KRCar-20" style="edgeStyle=orthogonalEdgeStyle;rounded=0;orthogonalLoop=1;jettySize=auto;html=1;entryX=0.479;entryY=0.014;entryDx=0;entryDy=0;entryPerimeter=0;fontSize=15;" edge="1" parent="WIyWlLk6GJQsqaUBKTNV-1" source="F_8K6QHJmM84Rk0KRCar-17" target="F_8K6QHJmM84Rk0KRCar-6">
          <mxGeometry relative="1" as="geometry" />
        </mxCell>
        <mxCell id="F_8K6QHJmM84Rk0KRCar-17" value="公司概述、治理结构和经营现状分析" style="whiteSpace=wrap;html=1;rounded=0;fontStyle=1" vertex="1" parent="WIyWlLk6GJQsqaUBKTNV-1">
          <mxGeometry x="210" y="431" width="220" height="96" as="geometry" />
        </mxCell>
        <mxCell id="F_8K6QHJmM84Rk0KRCar-25" style="edgeStyle=orthogonalEdgeStyle;rounded=0;orthogonalLoop=1;jettySize=auto;html=1;entryX=0.5;entryY=0;entryDx=0;entryDy=0;fontSize=15;" edge="1" parent="WIyWlLk6GJQsqaUBKTNV-1" source="F_8K6QHJmM84Rk0KRCar-21" target="F_8K6QHJmM84Rk0KRCar-22">
          <mxGeometry relative="1" as="geometry" />
        </mxCell>
        <mxCell id="F_8K6QHJmM84Rk0KRCar-21" value="&lt;b&gt;提出对策和建议&lt;br&gt;&lt;/b&gt;" style="rounded=0;whiteSpace=wrap;html=1;fontSize=15;" vertex="1" parent="WIyWlLk6GJQsqaUBKTNV-1">
          <mxGeometry x="250" y="760" width="140" height="70" as="geometry" />
        </mxCell>
        <mxCell id="F_8K6QHJmM84Rk0KRCar-22" value="&lt;b&gt;结论&lt;br&gt;&lt;/b&gt;" style="rounded=0;whiteSpace=wrap;html=1;fontSize=15;" vertex="1" parent="WIyWlLk6GJQsqaUBKTNV-1">
          <mxGeometry x="260" y="860" width="120" height="60" as="geometry" />
        </mxCell>
        <mxCell id="F_8K6QHJmM84Rk0KRCar-24" value="" style="endArrow=classic;html=1;fontSize=15;entryX=0.5;entryY=0;entryDx=0;entryDy=0;exitX=0;exitY=0.946;exitDx=0;exitDy=0;exitPerimeter=0;" edge="1" parent="WIyWlLk6GJQsqaUBKTNV-1" source="F_8K6QHJmM84Rk0KRCar-13" target="F_8K6QHJmM84Rk0KRCar-21">
          <mxGeometry width="50" height="50" relative="1" as="geometry">
            <mxPoint x="410" y="750" as="sourcePoint" />
            <mxPoint x="460" y="700" as="targetPoint" />
          </mxGeometry>
        </mxCell>
      </root>
    </mxGraphModel>
  </diagram>
</mxfile>
